<svg xmlns="http://www.w3.org/2000/svg" width="480" height="1080" viewBox="0 0 480 1080" role="img" aria-labelledby="titulo desc"><title id="titulo">Selected work</title><desc id="desc">Cluster Ops — Field Operations Platform. Offline-first software for crew coordination, progress tracking, communication, and operational visibility. ORBIT — AI-Assisted Workflow Automation. Human-in-the-loop workflows for research, personalization, outreach, and controlled task execution. REDLINE — Market Decision System. Desktop software for market context, decision tracking, trade review, and execution discipline. AtomX — Personal Finance Workspace. Cash flow, recurring bills, transaction visibility, and financial goals. Diagrams illustrate workflows, not live data or screenshots.</desc><g font-family="-apple-system,BlinkMacSystemFont,Segoe UI,Arial,sans-serif"><rect x="1" y="1" width="478" height="398" rx="10" fill="#141c23" stroke="#35414a"/><text x="27" y="48" fill="#e7ecef" font-size="32" font-weight="600" >Cluster Ops</text><text x="27" y="79" fill="#b3c7ac" font-size="18" font-weight="500" >Field Operations Platform</text><text x="27" y="116" fill="#a3afb8" font-size="16" font-weight="400" >Offline-first software for crew coordination,</text><text x="27" y="140" fill="#a3afb8" font-size="16" font-weight="400" >progress tracking, communication,</text><text x="27" y="164" fill="#a3afb8" font-size="16" font-weight="400" >and operational visibility.</text><g transform="translate(42 190) scale(1.13)"><rect x="0" y="0" width="152" height="64" rx="7" fill="#1c292c" stroke="#35414a"/><text x="17" y="27" fill="#e7ecef" font-size="15" font-weight="500" >Field capture</text><text x="17" y="47" fill="#a3afb8" font-size="12" font-weight="400" >Crew activity</text><rect x="196" y="0" width="152" height="64" rx="7" fill="#1c292c" stroke="#35414a"/><text x="213" y="27" fill="#e7ecef" font-size="15" font-weight="500" >Local queue</text><text x="213" y="47" fill="#a3afb8" font-size="12" font-weight="400" >Stored on device</text><rect x="196" y="104" width="152" height="64" rx="7" fill="#1c292c" stroke="#35414a"/><text x="213" y="131" fill="#e7ecef" font-size="15" font-weight="500" >Sync</text><text x="213" y="151" fill="#a3afb8" font-size="12" font-weight="400" >When connected</text><rect x="0" y="104" width="152" height="64" rx="7" fill="#1c292c" stroke="#35414a"/><text x="17" y="131" fill="#e7ecef" font-size="15" font-weight="500" >Shared view</text><text x="17" y="151" fill="#a3afb8" font-size="12" font-weight="400" >Progress &amp; roles</text><path d="M152 32 L196 32" stroke="#b3c7ac" fill="none"/><path d="M272 64 L272 104" stroke="#b3c7ac" fill="none"/><path d="M196 136 L152 136" stroke="#b3c7ac" fill="none"/><polyline points="184,29 188,32 184,35" fill="none" stroke="#b3c7ac"/><polyline points="269,92 272,96 275,92" fill="none" stroke="#b3c7ac"/><polyline points="164,133 160,136 164,139" fill="none" stroke="#b3c7ac"/></g><text x="27" y="382" fill="#a3afb8" font-size="13" font-weight="400" >Offline-first · Role-based workflows</text><rect x="1" y="414" width="478" height="206" rx="10" fill="#141c23" stroke="#35414a"/><text x="25" y="453" fill="#e7ecef" font-size="26" font-weight="600" >ORBIT</text><text x="25" y="479" fill="#a3afb8" font-size="16" font-weight="500" >AI-Assisted Workflow Automation</text><text x="25" y="512" fill="#a3afb8" font-size="16" font-weight="400" >Human-in-the-loop workflows for</text><text x="25" y="535" fill="#a3afb8" font-size="16" font-weight="400" >research, personalization, outreach,</text><text x="25" y="558" fill="#a3afb8" font-size="16" font-weight="400" >and controlled task execution.</text><rect x="1" y="636" width="478" height="206" rx="10" fill="#141c23" stroke="#35414a"/><text x="25" y="675" fill="#e7ecef" font-size="26" font-weight="600" >REDLINE</text><text x="25" y="701" fill="#a3afb8" font-size="16" font-weight="500" >Market Decision System</text><text x="25" y="734" fill="#a3afb8" font-size="16" font-weight="400" >Desktop software for market context,</text><text x="25" y="757" fill="#a3afb8" font-size="16" font-weight="400" >decision tracking, trade review,</text><text x="25" y="780" fill="#a3afb8" font-size="16" font-weight="400" >and execution discipline.</text><rect x="1" y="858" width="478" height="206" rx="10" fill="#141c23" stroke="#35414a"/><text x="25" y="897" fill="#e7ecef" font-size="26" font-weight="600" >AtomX</text><text x="25" y="923" fill="#a3afb8" font-size="16" font-weight="500" >Personal Finance Workspace</text><text x="25" y="956" fill="#a3afb8" font-size="16" font-weight="400" >A unified workspace for cash flow,</text><text x="25" y="979" fill="#a3afb8" font-size="16" font-weight="400" >recurring bills, transaction visibility,</text><text x="25" y="1002" fill="#a3afb8" font-size="16" font-weight="400" >and financial goals.</text></g></svg>